<svg id="Capa_1" enable-background="new 0 0 512 512" height="512" viewBox="0 0 512 512" width="512" xmlns="http://www.w3.org/2000/svg"><path d="m506.373 143.86-52.274-90.462c-22.105-21.38-49.387-37.442-79.783-46.12l-104.493-.003c-30.398 8.678-57.683 24.739-79.789 46.12 0 0-57.905 82.945-57.905 136.541 0 104.898 85.037 189.935 189.935 189.935 51.305 0 97.859-20.342 132.036-53.4l52.273-90.463c3.675-14.751 5.626-30.184 5.626-46.072.001-15.89-1.95-31.324-5.626-46.076z" fill="#ff8086"/><circle cx="322.065" cy="189.935" fill="#f9eac7" r="123.871"/><circle cx="322.065" cy="189.935" fill="#fff" r="107.355"/><path d="m316.225 114.024-70.072 70.072c-3.225 3.225-3.225 8.454 0 11.679l70.072 70.072c3.225 3.225 8.454 3.225 11.679 0l70.072-70.072c3.225-3.225 3.225-8.454 0-11.679l-70.072-70.072c-3.225-3.225-8.454-3.225-11.679 0z" fill="#ff8086"/><path d="m322.065 0c-18.119 0-35.643 2.536-52.241 7.275 12.084 15.61 30.973 25.757 52.241 25.757s40.168-10.144 52.252-25.754c-16.599-4.739-34.133-7.278-52.252-7.278z" fill="#f9eac7"/><path d="m157.576 94.968c-9.06 15.692-15.567 32.146-19.763 48.89 19.561-2.66 37.735-13.954 48.37-32.374 10.634-18.419 11.328-39.82 3.851-58.09-12.403 12.005-23.399 25.882-32.458 41.574z" fill="#f9eac7"/><path d="m486.553 284.903c9.06-15.692 15.625-32.152 19.82-48.895-19.561 2.66-37.793 13.96-48.427 32.379s-11.323 39.814-3.846 58.084c12.403-12.005 23.394-25.876 32.453-41.568z" fill="#f9eac7"/><path d="m486.553 94.968c9.06 15.692 15.624 32.149 19.82 48.893-19.561-2.66-37.792-13.957-48.426-32.377-10.634-18.419-11.325-39.815-3.848-58.085 12.402 12.005 23.395 25.877 32.454 41.569z" fill="#f9eac7"/><path d="m374.244 275.991-52.269-90.459c-22.108-21.385-49.396-37.449-79.798-46.128l-104.492.003c-30.398 8.679-57.681 24.741-79.787 46.123-35.701 34.533-53.398 82.941-53.398 136.534 0 104.899 80.537 185.186 185.435 185.186 51.299 0 97.853-15.59 132.029-48.641l52.28-90.467c3.676-14.752 5.627-30.187 5.627-46.078 0-15.888-1.951-31.322-5.627-46.073z" fill="#5d5360"/><path d="m202.323 499.613c-104.899 0-189.935-85.037-189.935-189.935 0-13.189 1.357-26.058 3.916-38.489-2.819-.706-3.477 1.682-6.178.593-.926 2.409-4.496 4.204-4.496 4.204-3.678 14.752-5.63 30.187-5.63 46.078 0 15.886 1.95 31.318 5.625 46.067l52.274 90.468c22.103 21.379 49.382 37.44 79.775 46.12l104.517.004c30.393-8.676 57.671-24.734 79.774-46.115-32.59 26.303-74.501 41.005-119.642 41.005z" fill="#4b3f4e"/><path d="m354.424 417.032c9.06-15.692 15.621-32.147 19.817-48.891-19.561 2.66-37.789 13.956-48.424 32.375-10.634 18.419-11.33 39.823-3.853 58.093 12.403-12.005 23.401-25.885 32.46-41.577z" fill="#f9eac7"/><circle cx="189.935" cy="322.065" fill="#f9eac7" r="123.871"/><circle cx="189.935" cy="322.065" fill="#fff" r="107.355"/><g fill="#f9eac7"><path d="m189.935 132.129c-18.119 0-35.652 2.541-52.25 7.28 12.084 15.61 30.982 25.752 52.25 25.752s40.158-10.147 52.242-25.757c-16.598-4.739-34.122-7.275-52.242-7.275z"/><path d="m189.935 478.968c-14.96 0-28.733 4.993-39.793 13.388l39.793 19.644 45.239-15.03c-11.813-11.148-27.711-18.002-45.239-18.002z"/><path d="m57.905 185.537c-12.403 12.005-29.905 36.63-42.905 70.796l.769 17.479c15.592-4.646 29.507-14.996 38.285-30.199 10.634-18.419 11.328-39.806 3.851-58.076z"/><path d="m354.424 227.097c9.06 15.692 15.619 32.152 19.815 48.895-19.561-2.66-37.787-13.96-48.422-32.379-10.634-18.419-11.32-39.811-3.843-58.081 12.404 12.005 23.391 25.873 32.45 41.565z"/><path d="m54.053 400.516c-7.356-12.741-18.32-22.073-30.855-27.496l5.635 41.813 33.851 23.594c.981-12.779-1.736-25.969-8.631-37.911z"/></g><path d="m244.437 306.031c-10.696-2.076-20.384 2.745-25.606 10.768-2.07 3.18-5.438 5.265-9.233 5.265h-.6c-5.967 0-10.805-4.837-10.805-10.805v-4.427c0-5.939 2.779-11.468 7.39-15.212 6.726-5.461 10.529-14.344 8.644-24.059-1.887-9.72-9.894-17.623-19.635-19.396-15.731-2.863-29.431 9.143-29.431 24.349 0 7.542 3.391 14.251 8.72 18.768 4.68 3.967 7.797 9.457 7.797 15.591v4.384c0 5.967-4.837 10.805-10.805 10.805h-.6c-3.795 0-7.163-2.085-9.233-5.265-5.222-8.024-14.91-12.844-25.606-10.768-9.72 1.887-17.623 9.894-19.396 19.635-2.863 15.731 9.143 29.431 24.349 29.431 8.617 0 16.147-4.426 20.562-11.112 2.127-3.222 5.497-5.404 9.358-5.404h.566c5.967 0 10.805 4.837 10.805 10.805v8.121c0 3.846-.895 7.639-2.615 11.079l-7.925 15.85c-2.745 5.491 1.247 11.951 7.386 11.951h22.825c6.139 0 10.132-6.46 7.386-11.951l-7.925-15.85c-1.72-3.44-2.615-7.233-2.615-11.079v-8.121c0-5.967 4.837-10.805 10.805-10.805h.566c3.861 0 7.231 2.182 9.358 5.404 4.415 6.686 11.945 11.112 20.562 11.112 15.206 0 27.213-13.7 24.349-29.431-1.775-9.739-9.678-17.747-19.398-19.633z" fill="#5d5360"/><path d="m57.905 185.537c-12.403 12.005-23.399 25.868-32.458 41.56-9.06 15.692-15.622 32.145-19.817 48.889 3.433-.467 6.825-1.183 10.139-2.174 6.331-33.011 21.105-63.729 42.136-88.275z" fill="#f4dbb3"/><path d="m62.682 438.427c-17.19-18.654-30.828-41.008-39.484-65.408-5.628-2.451-11.488-4.064-17.569-4.891 4.196 16.744 10.757 33.211 19.817 48.903 9.059 15.692 20.049 29.562 32.452 41.567 2.641-6.45 4.26-13.21 4.784-20.171z" fill="#f4dbb3"/><path d="m150.143 492.356c-4.71 3.559-8.855 7.693-12.469 12.362 16.598 4.738 34.143 7.282 52.262 7.282s35.657-2.538 52.255-7.276c-2.224-2.873-4.358-5.288-7.014-7.759-10.552 1.819-21.782 2.648-32.854 2.648-18.04 0-35.647-2.559-52.18-7.257z" fill="#f4dbb3"/></svg>